<svg width="12" height="12" viewBox="0 0 12 12" fill="none" xmlns="http://www.w3.org/2000/svg">
<path d="M10.375 0.75H1.625C1.39294 0.75 1.17038 0.842187 1.00628 1.00628C0.842187 1.17038 0.75 1.39294 0.75 1.625V10.375C0.75 10.6071 0.842187 10.8296 1.00628 10.9937C1.17038 11.1578 1.39294 11.25 1.625 11.25H10.375C10.6071 11.25 10.8296 11.1578 10.9937 10.9937C11.1578 10.8296 11.25 10.6071 11.25 10.375V1.625C11.25 1.39294 11.1578 1.17038 10.9937 1.00628C10.8296 0.842187 10.6071 0.75 10.375 0.75ZM9.0625 6.4375H6.4375V9.0625C6.4375 9.17853 6.39141 9.28981 6.30936 9.37186C6.22731 9.45391 6.11603 9.5 6 9.5C5.88397 9.5 5.77269 9.45391 5.69064 9.37186C5.60859 9.28981 5.5625 9.17853 5.5625 9.0625V6.4375H2.9375C2.82147 6.4375 2.71019 6.39141 2.62814 6.30936C2.54609 6.22731 2.5 6.11603 2.5 6C2.5 5.88397 2.54609 5.77269 2.62814 5.69064C2.71019 5.60859 2.82147 5.5625 2.9375 5.5625H5.5625V2.9375C5.5625 2.82147 5.60859 2.71019 5.69064 2.62814C5.77269 2.54609 5.88397 2.5 6 2.5C6.11603 2.5 6.22731 2.54609 6.30936 2.62814C6.39141 2.71019 6.4375 2.82147 6.4375 2.9375V5.5625H9.0625C9.17853 5.5625 9.28981 5.60859 9.37186 5.69064C9.45391 5.77269 9.5 5.88397 9.5 6C9.5 6.11603 9.45391 6.22731 9.37186 6.30936C9.28981 6.39141 9.17853 6.4375 9.0625 6.4375Z" fill="#2A2A2A"/>
</svg>
